<svg version="1.1" id="Layer_1" xmlns="http://www.w3.org/2000/svg" xmlns:xlink="http://www.w3.org/1999/xlink" x="0px" y="0px"
	 width="100%" viewBox="0 0 300 300" enable-background="new 0 0 300 300" xml:space="preserve">
<path fill="#FFFFFF" opacity="1.000000" stroke="none" 
	d="
M173.000000,301.000000 
	C115.333344,301.000000 58.166687,301.000000 1.000023,301.000000 
	C1.000015,201.000031 1.000015,101.000053 1.000008,1.000063 
	C100.999947,1.000042 200.999893,1.000042 300.999878,1.000021 
	C300.999939,100.999939 300.999939,200.999878 300.999969,300.999908 
	C258.500000,301.000000 216.000000,301.000000 173.000000,301.000000 
M49.976013,130.931671 
	C49.985329,136.613388 49.994644,142.295090 49.189632,148.324005 
	C49.189632,177.187210 49.189632,206.050415 49.189632,234.999924 
	C78.155815,234.999924 106.608864,235.009827 135.061813,234.957947 
	C136.036819,234.956161 137.010696,234.335068 138.924072,234.027145 
	C146.947723,234.017822 154.971359,234.008484 163.332230,234.816071 
	C193.191483,234.816071 223.050735,234.816071 252.999924,234.816071 
	C252.999924,207.515106 253.010391,180.729553 252.957993,153.944122 
	C252.956085,152.970596 252.336411,151.998291 252.021667,150.085052 
	C252.016342,142.713211 252.011017,135.341370 252.827103,127.651558 
	C252.827103,99.124947 252.827103,70.598343 252.827103,42.000095 
	C222.499512,42.000095 192.716141,41.990620 162.932861,42.042099 
	C161.956848,42.043789 160.981903,42.665939 159.070587,42.976967 
	C153.712173,42.984364 148.353760,42.991764 142.663422,42.180943 
	C111.470177,42.180943 80.276932,42.180943 49.000095,42.180943 
	C49.000095,70.826485 48.990055,98.947266 49.042168,127.067932 
	C49.043976,128.044373 49.666172,129.019669 49.976013,130.931671 
z"/>
<path fill="#C8C8C8" opacity="1.000000" stroke="none" 
	d="
M142.995346,42.999165 
	C148.353760,42.991764 153.712173,42.984364 159.975189,43.032196 
	C165.206848,43.738205 169.568359,44.215950 173.854965,45.069798 
	C192.144470,48.712883 208.036865,57.297707 221.920532,69.486900 
	C232.558517,78.826546 240.426453,90.485695 245.659271,103.528610 
	C248.767975,111.277100 249.954788,119.796654 252.005707,127.969528 
	C252.011017,135.341370 252.016342,142.713211 251.989899,150.999481 
	C251.762604,154.360321 251.866745,156.875290 251.324982,159.242447 
	C246.146225,181.869995 233.774719,199.968918 215.483795,213.863190 
	C200.044022,225.591660 183.042694,233.946182 162.995010,233.999161 
	C154.971359,234.008484 146.947723,234.017822 138.012650,233.989777 
	C134.183380,233.643829 131.235992,233.503326 128.352997,232.996506 
	C117.954536,231.168579 108.231972,227.429947 99.337265,221.781815 
	C94.136284,218.479187 89.148056,214.805801 84.288811,211.011444 
	C80.042427,207.695679 75.658928,204.367798 72.165359,200.328064 
	C68.616768,196.224716 66.059898,191.258514 63.109287,186.644257 
	C55.558895,174.836716 50.120918,162.306732 50.003960,147.976807 
	C49.994644,142.295090 49.985329,136.613388 50.030727,130.018463 
	C50.120129,126.956268 49.769882,124.717155 50.248722,122.672188 
	C55.344521,100.909637 65.487717,82.248993 82.879829,67.595711 
	C100.375633,52.855072 120.066231,44.135994 142.995346,42.999165 
M79.467735,139.000900 
	C79.338577,145.069321 79.240746,151.138641 79.069473,157.205872 
	C78.950768,161.411255 80.638702,164.136612 85.438416,165.421722 
	C85.607040,167.683197 85.775673,169.944656 85.152008,172.087326 
	C74.108002,169.956390 71.829277,167.225494 71.819954,156.099686 
	C71.816109,151.515686 71.819313,146.931686 71.819313,142.578186 
	C66.458649,142.578186 61.898579,142.578186 57.003971,142.578186 
	C58.095547,161.287460 64.429024,177.528061 75.526360,191.950073 
	C76.186447,192.807922 78.251358,193.297882 79.374313,192.970444 
	C86.532242,190.883331 93.639023,188.604218 100.680496,186.152405 
	C101.724419,185.788925 103.206360,183.936783 102.997910,183.186935 
	C101.960716,179.455765 100.425774,175.862961 98.717834,171.625351 
	C99.169502,169.348816 99.621178,167.072281 100.972366,164.872833 
	C104.007690,164.836395 107.043015,164.799957 110.558861,165.315796 
	C110.758919,167.617432 110.958977,169.919052 110.376656,172.147675 
	C105.421181,174.802643 109.915352,177.989990 109.975372,180.892609 
	C110.032707,183.665451 111.822876,184.082550 114.474815,183.759567 
	C123.975769,182.602432 133.500549,181.549103 143.046494,180.900818 
	C146.603867,180.659225 148.422577,179.823242 148.572006,175.892563 
	C150.768997,176.600220 152.966003,177.307877 155.164139,178.783936 
	C157.221130,179.452545 159.236252,180.479904 161.342590,180.725861 
	C169.241226,181.648193 177.260757,181.820160 185.054474,183.254333 
	C190.144196,184.190933 192.632248,183.117386 193.302216,178.037186 
	C193.431534,177.056580 193.728882,176.098129 194.654373,175.167953 
	C196.746704,176.018082 198.839020,176.868210 200.441833,178.326385 
	C199.997177,180.562500 199.552505,182.798615 199.077271,185.188522 
	C207.165787,187.881500 214.968857,190.633026 222.896545,192.959976 
	C224.143311,193.325943 226.493347,192.197968 227.422714,191.033844 
	C237.949020,177.848618 243.411148,162.569855 245.501190,145.971344 
	C245.785660,143.712204 245.356293,142.058319 242.441315,142.158310 
	C238.504837,142.293365 234.560257,142.191879 230.251205,142.191879 
	C230.251205,148.541367 230.352005,154.336060 230.222855,160.125641 
	C230.093536,165.923416 227.536087,169.146484 222.000092,170.290665 
	C223.224426,165.145676 225.188507,160.046539 225.510895,154.845642 
	C226.087143,145.549210 225.792847,136.189407 225.635910,126.859924 
	C225.509979,119.374069 223.913559,112.336494 218.763596,106.890167 
	C225.983475,107.242790 229.990616,111.620781 230.123581,119.466324 
	C230.210403,124.589661 230.139923,129.715668 230.139923,134.912842 
	C235.512817,134.912842 240.381638,134.912842 245.020432,134.912842 
	C245.324738,134.384476 245.484314,134.238434 245.477722,134.100327 
	C244.595139,115.602791 237.794785,99.376419 226.468124,84.926865 
	C225.971771,84.293663 224.593048,83.753983 223.881165,83.979225 
	C215.550461,86.615181 207.268799,89.406197 198.683731,92.252579 
	C199.797577,96.340805 200.835480,100.150269 201.220901,104.301598 
	C198.787842,104.869072 196.354797,105.436546 194.109238,105.169182 
	C193.402115,101.457420 192.694992,97.745659 191.954163,93.495560 
	C191.301147,93.400467 190.648132,93.305367 189.180481,93.520752 
	C177.901672,94.893410 166.622879,96.266068 155.007614,97.679680 
	C155.007614,99.684708 155.007614,101.799538 154.297974,104.214890 
	C152.028076,104.815300 149.758179,105.415718 147.814651,105.150276 
	C147.814651,102.553238 147.814651,99.956200 147.814651,97.405449 
	C137.885162,96.487686 128.453156,95.916100 119.111870,94.666489 
	C110.112144,93.462570 110.143471,93.152634 108.184601,102.083801 
	C108.009651,102.881439 108.072151,103.731163 107.180283,104.838158 
	C105.122337,104.867325 103.064392,104.896500 101.016541,104.373657 
	C100.981628,104.192741 100.946716,104.011833 101.012527,103.047981 
	C101.513298,100.785004 101.759048,98.425011 102.574341,96.281677 
	C103.811012,93.030586 103.138306,91.601616 99.555908,90.697586 
	C93.309402,89.121246 87.106064,87.198029 81.125008,84.816505 
	C77.917336,83.539276 76.220047,84.456039 74.474701,86.804291 
	C64.256012,100.552879 58.281445,115.905838 56.467930,133.353226 
	C56.958881,133.910492 57.449837,134.467773 58.878330,135.117706 
	C63.109699,135.117706 67.341064,135.117706 71.910614,135.117706 
	C71.910614,129.469559 71.941025,124.355843 71.901726,119.242661 
	C71.865204,114.489799 73.277863,110.448532 77.781410,108.251160 
	C78.119713,110.845863 78.458023,113.440559 78.295502,116.678596 
	C78.199677,121.149017 77.938103,125.624344 78.070221,130.088013 
	C78.149445,132.764435 78.843712,135.422638 79.467735,139.000900 
M97.566994,212.058624 
	C105.578140,216.637711 113.468582,221.514206 122.946777,222.741333 
	C120.466125,218.171051 117.351982,214.328934 114.972534,210.075775 
	C114.002991,208.342743 113.707069,204.485977 114.706734,203.738785 
	C117.292274,201.806183 119.211678,203.906158 121.019760,206.328873 
	C124.671425,211.221878 128.518494,216.049347 132.853073,220.328354 
	C136.697678,224.123642 141.366959,227.013657 147.481613,227.150482 
	C147.481613,213.583633 147.481613,200.377319 147.481613,186.319763 
	C136.103912,187.586334 125.125092,188.808517 114.146278,190.030685 
	C114.380424,190.441315 114.614578,190.851929 114.848732,191.262558 
	C113.921547,193.323990 112.994362,195.385406 112.067184,197.446823 
	C110.177376,196.255768 108.359749,194.920029 106.370773,193.927765 
	C105.172554,193.330002 103.549629,192.719009 102.388924,193.054062 
	C95.928841,194.918777 89.551796,197.071182 81.882797,199.530334 
	C87.500816,204.036667 92.236931,207.835587 97.566994,212.058624 
M154.704605,55.636028 
	C154.704605,67.254890 154.704605,78.873756 154.704605,91.214615 
	C166.570496,89.867798 177.816742,88.591309 189.062988,87.314827 
	C188.686203,86.834106 188.309418,86.353394 187.932632,85.872681 
	C188.768005,83.896423 189.603363,81.920166 190.438721,79.943916 
	C192.691956,81.276802 194.945175,82.609688 197.198410,83.942574 
	C197.074509,84.458923 196.950592,84.975273 196.826675,85.491623 
	C204.532532,83.026733 212.238388,80.561844 220.343796,77.969147 
	C210.201035,66.939415 185.516357,52.754017 178.314621,54.427731 
	C181.586487,58.936607 185.094788,63.317780 188.004715,68.065681 
	C188.846237,69.438728 187.969666,71.864784 187.880753,73.808090 
	C185.951614,73.076805 183.603271,72.801521 182.193405,71.505386 
	C180.172546,69.647537 179.004089,66.899940 177.177643,64.786316 
	C171.217529,57.889095 164.912659,51.429123 154.704880,49.811245 
	C154.704880,51.741425 154.704880,53.209770 154.704605,55.636028 
M120.536201,88.060707 
	C129.527451,89.088280 138.518692,90.115845 147.596313,91.153282 
	C147.596313,76.999115 147.596313,63.613289 147.596313,50.219025 
	C133.056549,50.851444 118.280731,70.344154 113.892509,86.935745 
	C115.839645,87.284576 117.756660,87.628014 120.536201,88.060707 
M175.977264,188.495483 
	C169.093567,187.946243 162.209885,187.397003 155.110794,186.830582 
	C155.110794,200.970261 155.110794,213.978775 155.110794,227.022324 
	C168.238220,225.847870 184.147415,208.499863 188.602142,190.483917 
	C184.653641,189.876877 180.749451,189.276672 175.977264,188.495483 
M124.685104,55.032967 
	C125.068451,54.454288 125.451797,53.875610 126.387581,52.463009 
	C109.135559,57.363445 94.813225,65.158974 82.212532,78.072479 
	C90.561775,80.702614 98.038834,83.057999 103.873016,84.895851 
	C111.125969,74.393684 117.639496,64.962189 124.685104,55.032967 
M194.923874,196.291611 
	C189.659164,205.316711 184.394440,214.341827 179.356857,222.977554 
	C187.691223,223.536636 213.253754,208.897156 219.411652,199.142166 
	C212.885880,197.072861 206.465546,195.013412 200.028381,193.007996 
	C197.635818,192.262619 195.782318,192.765106 194.923874,196.291611 
z"/>
<path fill="#000000" opacity="1.000000" stroke="none" 
	d="
M142.829376,42.590054 
	C120.066231,44.135994 100.375633,52.855072 82.879829,67.595711 
	C65.487717,82.248993 55.344521,100.909637 50.248722,122.672188 
	C49.769882,124.717155 50.120129,126.956268 50.042328,129.550369 
	C49.666172,129.019669 49.043976,128.044373 49.042168,127.067932 
	C48.990055,98.947266 49.000095,70.826485 49.000095,42.180943 
	C80.276932,42.180943 111.470177,42.180943 142.829376,42.590054 
z"/>
<path fill="#000000" opacity="1.000000" stroke="none" 
	d="
M252.416412,127.810547 
	C249.954788,119.796654 248.767975,111.277100 245.659271,103.528610 
	C240.426453,90.485695 232.558517,78.826546 221.920532,69.486900 
	C208.036865,57.297707 192.144470,48.712883 173.854965,45.069798 
	C169.568359,44.215950 165.206848,43.738205 160.443130,43.043144 
	C160.981903,42.665939 161.956848,42.043789 162.932861,42.042099 
	C192.716141,41.990620 222.499512,42.000095 252.827103,42.000095 
	C252.827103,70.598343 252.827103,99.124947 252.416412,127.810547 
z"/>
<path fill="#000000" opacity="1.000000" stroke="none" 
	d="
M49.596794,148.150406 
	C50.120918,162.306732 55.558895,174.836716 63.109287,186.644257 
	C66.059898,191.258514 68.616768,196.224716 72.165359,200.328064 
	C75.658928,204.367798 80.042427,207.695679 84.288811,211.011444 
	C89.148056,214.805801 94.136284,218.479187 99.337265,221.781815 
	C108.231972,227.429947 117.954536,231.168579 128.352997,232.996506 
	C131.235992,233.503326 134.183380,233.643829 137.543167,233.977524 
	C137.010696,234.335068 136.036819,234.956161 135.061813,234.957947 
	C106.608864,235.009827 78.155815,234.999924 49.189632,234.999924 
	C49.189632,206.050415 49.189632,177.187210 49.596794,148.150406 
z"/>
<path fill="#000000" opacity="1.000000" stroke="none" 
	d="
M163.163620,234.407623 
	C183.042694,233.946182 200.044022,225.591660 215.483795,213.863190 
	C233.774719,199.968918 246.146225,181.869995 251.324982,159.242447 
	C251.866745,156.875290 251.762604,154.360321 251.981400,151.469666 
	C252.336411,151.998291 252.956085,152.970596 252.957993,153.944122 
	C253.010391,180.729553 252.999924,207.515106 252.999924,234.816071 
	C223.050735,234.816071 193.191483,234.816071 163.163620,234.407623 
z"/>
<path fill="#3434C8" opacity="1.000000" stroke="none" 
	d="
M100.072853,164.795746 
	C99.621178,167.072281 99.169502,169.348816 98.875290,172.308868 
	C98.268150,179.274017 93.389702,176.364609 90.122559,176.913345 
	C86.414238,177.536163 86.388512,174.624847 85.944305,172.206131 
	C85.775673,169.944656 85.607040,167.683197 85.181610,164.714890 
	C84.261246,158.334534 83.783211,152.630783 82.865303,146.998718 
	C82.304489,143.557648 81.067551,140.226776 80.059227,136.422333 
	C79.588226,129.343933 79.192276,122.689598 78.796326,116.035263 
	C78.458023,113.440559 78.119713,110.845863 77.506577,107.578339 
	C78.795258,103.621864 84.175362,103.028137 88.503479,105.984573 
	C88.799789,108.306053 89.348915,110.276695 89.886040,112.682159 
	C90.271950,116.835510 90.669853,120.554031 91.073372,124.717712 
	C91.598106,132.366852 92.117226,139.570816 92.636345,146.774780 
	C93.413124,146.768158 94.189896,146.761536 94.966667,146.754913 
	C95.629250,139.340561 96.291824,131.926208 97.155594,124.130295 
	C97.879311,119.913498 98.401848,116.078262 99.210266,111.980553 
	C99.999580,109.453934 100.503014,107.189804 101.006447,104.925667 
	C103.064392,104.896500 105.122337,104.867325 107.936142,104.805313 
	C109.014488,105.094742 109.336990,105.417015 109.475342,106.094925 
	C109.847038,108.358002 110.402893,110.265434 110.962433,112.582985 
	C111.394714,116.445282 111.823318,119.897476 112.191605,123.815353 
	C113.415543,130.579086 114.699806,136.877121 116.068466,143.432922 
	C116.360428,143.984619 116.567986,144.278534 116.775528,144.572449 
	C116.787659,144.422882 116.793762,144.272522 116.812790,144.123840 
	C118.178421,133.452805 119.545097,122.781914 121.068924,111.736977 
	C121.306679,109.483124 121.387199,107.603310 121.659630,105.363647 
	C125.478050,105.234474 129.104553,105.465141 132.465561,106.013092 
	C132.145020,108.271149 132.089966,110.211906 132.000870,112.544983 
	C131.392914,116.248558 130.819016,119.559830 130.082092,123.225075 
	C129.886215,125.762169 129.853363,127.945290 129.786087,130.477219 
	C129.494247,132.205551 129.236832,133.585052 128.762115,135.240356 
	C128.396759,137.688293 128.248688,139.860413 128.060211,142.447815 
	C128.100021,143.697906 128.180222,144.532730 128.266968,145.487701 
	C128.273529,145.607849 128.062897,145.724243 127.700737,145.909882 
	C126.990288,148.817703 126.642006,151.539871 126.267395,154.678802 
	C125.841454,158.334320 125.441841,161.573059 124.827866,165.112656 
	C124.416183,167.679688 124.218849,169.945862 123.978012,172.606354 
	C122.210144,181.158936 116.108971,174.721939 112.527115,177.306839 
	C111.923599,175.063141 111.541321,173.641907 111.159035,172.220688 
	C110.958977,169.919052 110.758919,167.617432 110.290009,164.635681 
	C109.378754,159.706665 108.736359,155.457779 108.309875,150.908997 
	C107.626625,145.394745 106.727463,140.180374 105.828300,134.966019 
	C105.140182,135.021744 104.452065,135.077469 103.763947,135.133194 
	C103.546844,138.596832 103.329742,142.060471 103.054626,145.968384 
	C102.022026,152.540359 101.047440,158.668045 100.072853,164.795746 
z"/>
<path fill="#3535C8" opacity="1.000000" stroke="none" 
	d="
M200.931351,177.718338 
	C198.839020,176.868210 196.746704,176.018082 194.026306,175.033997 
	C192.400986,173.958176 191.403748,173.016312 190.290833,171.722046 
	C188.901672,169.186829 187.628204,167.004028 186.288208,164.394592 
	C185.809921,153.118408 185.398163,142.268845 184.896225,131.042969 
	C184.859528,128.602463 184.912994,126.538300 185.168488,124.110703 
	C186.290573,119.893539 187.210648,116.039803 188.432800,112.044365 
	C190.488968,109.911934 192.243057,107.921204 193.996063,105.967072 
	C193.994980,106.003677 193.921738,106.004013 193.921738,106.004013 
	C196.354797,105.436546 198.787842,104.869072 202.016052,104.149231 
	C207.976288,104.432152 213.605988,102.568153 217.952042,107.056496 
	C223.913559,112.336494 225.509979,119.374069 225.635910,126.859924 
	C225.792847,136.189407 226.087143,145.549210 225.510895,154.845642 
	C225.188507,160.046539 223.224426,165.145676 221.814423,170.969391 
	C216.034592,178.121033 208.609146,178.349915 200.931351,177.718338 
M210.874298,164.322922 
	C211.241058,160.018372 211.607803,155.713837 212.039764,150.656052 
	C211.871704,146.851562 211.714828,143.046509 211.529129,139.242889 
	C211.468719,138.005600 211.195984,136.764969 211.258682,135.538055 
	C211.414627,132.486237 211.707703,129.441406 212.100571,125.474937 
	C211.949478,123.184837 212.534683,120.427666 211.455460,118.726303 
	C210.189331,116.730278 207.516617,114.587967 205.378052,114.506691 
	C203.611313,114.439552 201.470673,117.070992 200.011383,118.914795 
	C199.222122,119.912025 199.512589,121.763779 199.071518,124.009163 
	C199.298080,126.053391 199.524628,128.097610 199.744431,130.846771 
	C199.777161,132.000702 199.809891,133.154633 199.277893,135.002258 
	C199.657806,137.944031 200.076385,140.881592 200.396164,143.829895 
	C200.504700,144.830719 200.397324,145.860794 200.330322,146.873657 
	C200.167068,149.341446 199.969681,151.806961 199.775726,155.127197 
	C200.075821,158.368637 200.375916,161.610092 200.921814,165.614685 
	C204.847794,169.215942 207.909973,169.015869 210.874298,164.322922 
z"/>
<path fill="#3535C9" opacity="1.000000" stroke="none" 
	d="
M147.488281,106.016129 
	C149.758179,105.415718 152.028076,104.815300 155.111755,104.083191 
	C160.377869,104.615059 164.830185,105.278625 169.391815,106.236092 
	C171.634048,108.416939 173.766983,110.303879 175.984146,112.573418 
	C176.741364,117.673042 177.414352,122.390068 178.119843,127.471252 
	C176.508484,128.680832 174.803986,130.317993 173.233994,130.197845 
	C170.436722,129.983780 167.720779,128.707123 164.986710,127.432823 
	C164.865036,124.209007 165.405304,121.136780 164.376877,118.736717 
	C163.544098,116.793182 160.860992,114.542488 158.930923,114.478783 
	C157.004059,114.415184 154.619690,116.593132 153.149292,118.376564 
	C152.157715,119.579216 152.403824,121.802307 152.036652,123.994080 
	C152.291901,128.928284 152.606781,133.437317 152.585373,138.213806 
	C152.436249,146.226700 152.452576,153.983536 152.965714,161.707336 
	C153.059677,163.121750 155.171066,165.516006 156.357010,165.519562 
	C159.096100,165.527756 163.673767,165.009171 164.212921,163.515594 
	C165.489258,159.979919 164.848221,155.752090 164.946350,151.416565 
	C163.351257,149.648575 161.792160,148.268097 159.651810,146.372971 
	C159.651810,145.117340 159.651810,142.740295 159.651810,140.441452 
	C165.604172,140.441452 171.153717,140.441452 176.368042,140.441452 
	C176.954788,144.022583 177.476410,147.206268 178.036591,150.825012 
	C178.083359,155.788254 178.091599,160.316437 178.007736,165.298813 
	C177.975601,167.896637 178.035553,170.040283 178.070328,172.603394 
	C177.438934,174.310532 176.963638,176.612457 176.203857,176.710541 
	C172.888306,177.138550 168.968994,178.218735 168.230118,174.675369 
	C163.645569,175.847244 159.404282,176.931396 155.162994,178.015533 
	C152.966003,177.307877 150.768997,176.600220 147.903351,175.838821 
	C145.908752,174.561340 144.582794,173.337616 143.182343,171.751801 
	C141.864014,169.204620 140.620193,167.019516 139.312286,164.419098 
	C138.880936,160.749268 138.513672,157.494736 138.419479,153.948441 
	C138.512863,151.359634 138.333176,149.062607 138.134460,146.378143 
	C138.104233,144.693756 138.093018,143.396774 138.034912,142.104095 
	C137.988037,142.108398 137.949066,142.022659 138.150620,141.948853 
	C138.599945,141.708115 138.764206,141.480850 138.980667,140.804031 
	C138.841415,138.601242 138.566437,136.787643 138.262909,134.571014 
	C138.229446,132.822891 138.224564,131.477798 138.503494,129.834076 
	C138.769287,127.336479 138.751266,125.137520 138.769958,122.530693 
	C139.592178,118.813187 140.377670,115.503540 141.451920,112.041351 
	C143.673920,109.918594 145.607147,107.948387 147.533417,105.991661 
	C147.526428,106.005142 147.488281,106.016129 147.488281,106.016129 
z"/>
<path fill="#050505" opacity="1.000000" stroke="none" 
	d="
M97.270020,211.846558 
	C92.236931,207.835587 87.500816,204.036667 81.882797,199.530334 
	C89.551796,197.071182 95.928841,194.918777 102.388924,193.054062 
	C103.549629,192.719009 105.172554,193.330002 106.370773,193.927765 
	C108.359749,194.920029 110.177376,196.255768 112.067184,197.446838 
	C112.994362,195.385406 113.921547,193.323990 114.848732,191.262558 
	C114.614578,190.851929 114.380424,190.441315 114.146278,190.030685 
	C125.125092,188.808517 136.103912,187.586334 147.481613,186.319763 
	C147.481613,200.377319 147.481613,213.583633 147.481613,227.150482 
	C141.366959,227.013657 136.697678,224.123642 132.853073,220.328354 
	C128.518494,216.049347 124.671425,211.221878 121.019760,206.328873 
	C119.211678,203.906158 117.292274,201.806183 114.706734,203.738785 
	C113.707069,204.485977 114.002991,208.342743 114.972534,210.075775 
	C117.351982,214.328934 120.466125,218.171051 122.946777,222.741333 
	C113.468582,221.514206 105.578140,216.637711 97.270020,211.846558 
z"/>
<path fill="#020202" opacity="1.000000" stroke="none" 
	d="
M154.704742,55.157074 
	C154.704880,53.209770 154.704880,51.741425 154.704880,49.811245 
	C164.912659,51.429123 171.217529,57.889095 177.177643,64.786316 
	C179.004089,66.899940 180.172546,69.647537 182.193405,71.505386 
	C183.603271,72.801521 185.951614,73.076805 187.880753,73.808090 
	C187.969666,71.864784 188.846237,69.438728 188.004715,68.065681 
	C185.094788,63.317780 181.586487,58.936607 178.314621,54.427731 
	C185.516357,52.754017 210.201035,66.939415 220.343796,77.969147 
	C212.238388,80.561844 204.532532,83.026733 196.826675,85.491623 
	C196.950592,84.975273 197.074509,84.458923 197.198410,83.942574 
	C194.945175,82.609688 192.691956,81.276802 190.438721,79.943916 
	C189.603363,81.920166 188.768005,83.896423 187.932632,85.872681 
	C188.309418,86.353394 188.686203,86.834106 189.062988,87.314827 
	C177.816742,88.591309 166.570496,89.867798 154.704605,91.214615 
	C154.704605,78.873756 154.704605,67.254890 154.704742,55.157074 
z"/>
<path fill="#030303" opacity="1.000000" stroke="none" 
	d="
M218.357819,106.973328 
	C213.605988,102.568153 207.976288,104.432152 202.342285,103.978302 
	C200.835480,100.150269 199.797577,96.340805 198.683731,92.252579 
	C207.268799,89.406197 215.550461,86.615181 223.881165,83.979225 
	C224.593048,83.753983 225.971771,84.293663 226.468124,84.926865 
	C237.794785,99.376419 244.595139,115.602791 245.477722,134.100327 
	C245.484314,134.238434 245.324738,134.384476 245.020432,134.912842 
	C240.381638,134.912842 235.512817,134.912842 230.139923,134.912842 
	C230.139923,129.715668 230.210403,124.589661 230.123581,119.466324 
	C229.990616,111.620781 225.983475,107.242790 218.357819,106.973328 
z"/>
<path fill="#040404" opacity="1.000000" stroke="none" 
	d="
M88.756302,105.633720 
	C84.175362,103.028137 78.795258,103.621864 77.282181,107.265167 
	C73.277863,110.448532 71.865204,114.489799 71.901726,119.242661 
	C71.941025,124.355843 71.910614,129.469559 71.910614,135.117706 
	C67.341064,135.117706 63.109699,135.117706 58.352829,134.788666 
	C57.529697,133.979218 57.232071,133.498810 56.934441,133.018417 
	C58.281445,115.905838 64.256012,100.552879 74.474701,86.804291 
	C76.220047,84.456039 77.917336,83.539276 81.125008,84.816505 
	C87.106064,87.198029 93.309402,89.121246 99.555908,90.697586 
	C103.138306,91.601616 103.811012,93.030586 102.574341,96.281677 
	C101.759048,98.425011 101.513298,100.785004 100.641296,103.653168 
	C96.432152,104.716805 92.594223,105.175262 88.756302,105.633720 
z"/>
<path fill="#040404" opacity="1.000000" stroke="none" 
	d="
M120.104935,88.016083 
	C117.756660,87.628014 115.839645,87.284576 113.892509,86.935745 
	C118.280731,70.344154 133.056549,50.851444 147.596313,50.219025 
	C147.596313,63.613289 147.596313,76.999115 147.596313,91.153282 
	C138.518692,90.115845 129.527451,89.088280 120.104935,88.016083 
z"/>
<path fill="#070707" opacity="1.000000" stroke="none" 
	d="
M85.548157,172.146729 
	C86.388512,174.624847 86.414238,177.536163 90.122559,176.913345 
	C93.389702,176.364609 98.268150,179.274017 99.049423,172.606918 
	C100.425774,175.862961 101.960716,179.455765 102.997910,183.186935 
	C103.206360,183.936783 101.724419,185.788925 100.680496,186.152405 
	C93.639023,188.604218 86.532242,190.883331 79.374313,192.970444 
	C78.251358,193.297882 76.186447,192.807922 75.526360,191.950073 
	C64.429024,177.528061 58.095547,161.287460 57.003971,142.578186 
	C61.898579,142.578186 66.458649,142.578186 71.819313,142.578186 
	C71.819313,146.931686 71.816109,151.515686 71.819954,156.099686 
	C71.829277,167.225494 74.108002,169.956390 85.548157,172.146729 
z"/>
<path fill="#040404" opacity="1.000000" stroke="none" 
	d="
M176.411255,188.585968 
	C180.749451,189.276672 184.653641,189.876877 188.602142,190.483917 
	C184.147415,208.499863 168.238220,225.847870 155.110794,227.022324 
	C155.110794,213.978775 155.110794,200.970261 155.110794,186.830582 
	C162.209885,187.397003 169.093567,187.946243 176.411255,188.585968 
z"/>
<path fill="#060606" opacity="1.000000" stroke="none" 
	d="
M200.686584,178.022369 
	C208.609146,178.349915 216.034592,178.121033 221.776520,171.353058 
	C227.536087,169.146484 230.093536,165.923416 230.222855,160.125641 
	C230.352005,154.336060 230.251205,148.541367 230.251205,142.191879 
	C234.560257,142.191879 238.504837,142.293365 242.441315,142.158310 
	C245.356293,142.058319 245.785660,143.712204 245.501190,145.971344 
	C243.411148,162.569855 237.949020,177.848618 227.422714,191.033844 
	C226.493347,192.197968 224.143311,193.325943 222.896545,192.959976 
	C214.968857,190.633026 207.165787,187.881500 199.077271,185.188522 
	C199.552505,182.798615 199.997177,180.562500 200.686584,178.022369 
z"/>
<path fill="#020202" opacity="1.000000" stroke="none" 
	d="
M124.419067,55.281830 
	C117.639496,64.962189 111.125969,74.393684 103.873016,84.895851 
	C98.038834,83.057999 90.561775,80.702614 82.212532,78.072479 
	C94.813225,65.158974 109.135559,57.363445 126.387581,52.463009 
	C125.451797,53.875610 125.068451,54.454288 124.419067,55.281830 
z"/>
<path fill="#040404" opacity="1.000000" stroke="none" 
	d="
M195.031403,195.906250 
	C195.782318,192.765106 197.635818,192.262619 200.028381,193.007996 
	C206.465546,195.013412 212.885880,197.072861 219.411652,199.142166 
	C213.253754,208.897156 187.691223,223.536636 179.356857,222.977554 
	C184.394440,214.341827 189.659164,205.316711 195.031403,195.906250 
z"/>
<path fill="#080809" opacity="1.000000" stroke="none" 
	d="
M147.651459,105.583206 
	C147.488281,106.016129 147.526428,106.005142 147.023193,105.952271 
	C141.923660,105.831535 137.327347,105.763672 132.731049,105.695816 
	C129.104553,105.465141 125.478050,105.234474 121.258240,105.421143 
	C116.996452,105.805412 113.327972,105.772346 109.659485,105.739281 
	C109.336990,105.417015 109.014488,105.094742 108.358185,104.664581 
	C108.072151,103.731163 108.009651,102.881439 108.184601,102.083801 
	C110.143471,93.152634 110.112144,93.462570 119.111870,94.666489 
	C128.453156,95.916100 137.885162,96.487686 147.814651,97.405449 
	C147.814651,99.956200 147.814651,102.553238 147.651459,105.583206 
z"/>
<path fill="#070707" opacity="1.000000" stroke="none" 
	d="
M169.282516,105.942184 
	C164.830185,105.278625 160.377869,104.615059 155.466583,103.932930 
	C155.007614,101.799538 155.007614,99.684708 155.007614,97.679680 
	C166.622879,96.266068 177.901672,94.893410 189.878693,93.587341 
	C191.047211,93.780586 191.517548,93.907242 191.987869,94.033897 
	C192.694992,97.745659 193.402115,101.457420 194.015488,105.586594 
	C193.921738,106.004013 193.994980,106.003677 193.528534,105.940315 
	C185.135574,105.898705 177.209045,105.920448 169.282516,105.942184 
z"/>
<path fill="#0E0E0F" opacity="1.000000" stroke="none" 
	d="
M143.256851,172.113876 
	C144.582794,173.337616 145.908752,174.561340 147.513550,175.905579 
	C148.422577,179.823242 146.603867,180.659225 143.046494,180.900818 
	C133.500549,181.549103 123.975769,182.602432 114.474815,183.759567 
	C111.822876,184.082550 110.032707,183.665451 109.975372,180.892609 
	C109.915352,177.989990 105.421181,174.802643 110.767845,172.184174 
	C111.541321,173.641907 111.923599,175.063141 112.527115,177.306839 
	C116.108971,174.721939 122.210144,181.158936 124.446220,172.574005 
	C131.057571,172.136185 137.157211,172.125031 143.256851,172.113876 
z"/>
<path fill="#0E0E0F" opacity="1.000000" stroke="none" 
	d="
M155.163574,178.399734 
	C159.404282,176.931396 163.645569,175.847244 168.230118,174.675369 
	C168.968994,178.218735 172.888306,177.138550 176.203857,176.710541 
	C176.963638,176.612457 177.438934,174.310532 178.524185,172.582977 
	C182.804321,172.120224 186.605423,172.097336 190.406525,172.074432 
	C191.403748,173.016312 192.400986,173.958176 193.673477,175.014740 
	C193.728882,176.098129 193.431534,177.056580 193.302216,178.037186 
	C192.632248,183.117386 190.144196,184.190933 185.054474,183.254333 
	C177.260757,181.820160 169.241226,181.648193 161.342590,180.725861 
	C159.236252,180.479904 157.221130,179.452545 155.163574,178.399734 
z"/>
<path fill="#08080A" opacity="1.000000" stroke="none" 
	d="
M108.093956,151.208878 
	C108.736359,155.457779 109.378754,159.706665 110.049744,164.359558 
	C107.043015,164.799957 104.007690,164.836395 100.522614,164.834290 
	C101.047440,158.668045 102.022026,152.540359 103.354034,146.145020 
	C105.172295,147.654541 106.633125,149.431717 108.093956,151.208878 
z"/>
<path fill="#131317" opacity="1.000000" stroke="none" 
	d="
M80.134277,136.846405 
	C81.067551,140.226776 82.304489,143.557648 82.865303,146.998718 
	C83.783211,152.630783 84.261246,158.334534 84.956718,164.422607 
	C80.638702,164.136612 78.950768,161.411255 79.069473,157.205872 
	C79.240746,151.138641 79.338577,145.069321 79.587532,138.406082 
	C79.849648,137.489639 79.991959,137.168030 80.134277,136.846405 
z"/>
<path fill="#B0B0B1" opacity="1.000000" stroke="none" 
	d="
M88.503479,105.984573 
	C92.594223,105.175262 96.432152,104.716805 100.590942,104.044632 
	C100.946716,104.011833 100.981628,104.192741 101.011490,104.649658 
	C100.503014,107.189804 99.999580,109.453934 98.763306,111.949860 
	C95.319649,112.203537 92.608841,112.225433 89.898041,112.247330 
	C89.348915,110.276695 88.799789,108.306053 88.503479,105.984573 
z"/>
<path fill="#B0B0B1" opacity="1.000000" stroke="none" 
	d="
M80.059219,136.422333 
	C79.991959,137.168030 79.849648,137.489639 79.484436,137.950150 
	C78.843712,135.422638 78.149445,132.764435 78.070221,130.088013 
	C77.938103,125.624344 78.199677,121.149017 78.545914,116.356934 
	C79.192276,122.689598 79.588226,129.343933 80.059219,136.422333 
z"/>
<path fill="#B0B0B1" opacity="1.000000" stroke="none" 
	d="
M56.701187,133.185822 
	C57.232071,133.498810 57.529697,133.979218 57.884056,134.742325 
	C57.449837,134.467773 56.958881,133.910492 56.701187,133.185822 
z"/>
<path fill="#C4C4C7" opacity="1.000000" stroke="none" 
	d="
M191.971008,93.764725 
	C191.517548,93.907242 191.047211,93.780586 190.286011,93.432098 
	C190.648132,93.305367 191.301147,93.400467 191.971008,93.764725 
z"/>
<path fill="#0D0D12" opacity="1.000000" stroke="none" 
	d="
M112.251915,123.349663 
	C111.823318,119.897476 111.394714,116.445282 111.419136,112.533600 
	C114.885330,112.086411 117.898506,112.098709 120.911682,112.111008 
	C119.545097,122.781914 118.178421,133.452805 116.812790,144.123840 
	C116.793762,144.272522 116.787659,144.422882 116.775528,144.572449 
	C116.567986,144.278534 116.360428,143.984619 116.147583,142.954361 
	C116.125587,137.648895 116.037804,133.078522 116.118340,128.511108 
	C116.168030,125.693619 115.353760,123.714439 112.251915,123.349663 
z"/>
<path fill="#0D0D0F" opacity="1.000000" stroke="none" 
	d="
M138.146408,154.240219 
	C138.513672,157.494736 138.880936,160.749268 138.807861,164.446457 
	C133.925766,164.863358 129.483994,164.837585 125.042221,164.811813 
	C125.441841,161.573059 125.841454,158.334320 126.696220,154.641113 
	C130.816376,154.204514 134.481400,154.222366 138.146408,154.240219 
z"/>
<path fill="#C4C4C6" opacity="1.000000" stroke="none" 
	d="
M124.827873,165.112656 
	C129.483994,164.837585 133.925766,164.863358 138.871948,164.861786 
	C140.620193,167.019516 141.864014,169.204620 143.182343,171.751801 
	C137.157211,172.125031 131.057571,172.136185 124.489716,172.179703 
	C124.218849,169.945862 124.416183,167.679688 124.827873,165.112656 
z"/>
<path fill="#C2C2CE" opacity="1.000000" stroke="none" 
	d="
M96.954407,124.511856 
	C96.291824,131.926208 95.629250,139.340561 94.966667,146.754913 
	C94.189896,146.761536 93.413124,146.768158 92.636345,146.774780 
	C92.117226,139.570816 91.598106,132.366852 91.493027,124.597374 
	C93.589508,124.191864 95.271957,124.351860 96.954407,124.511856 
z"/>
<path fill="#07070B" opacity="1.000000" stroke="none" 
	d="
M97.155594,124.130295 
	C95.271957,124.351860 93.589508,124.191864 91.487411,124.152206 
	C90.669853,120.554031 90.271950,116.835510 89.886040,112.682159 
	C92.608841,112.225433 95.319649,112.203537 98.477417,112.212341 
	C98.401848,116.078262 97.879311,119.913498 97.155594,124.130295 
z"/>
<path fill="#070707" opacity="1.000000" stroke="none" 
	d="
M141.163147,112.193893 
	C140.377670,115.503540 139.592178,118.813187 138.358398,122.614960 
	C135.355103,123.028419 132.800095,122.949753 130.245102,122.871094 
	C130.819016,119.559830 131.392914,116.248558 132.451340,112.514961 
	C135.678284,112.126381 138.420715,112.160133 141.163147,112.193893 
z"/>
<path fill="#C4C4C7" opacity="1.000000" stroke="none" 
	d="
M138.419479,153.948441 
	C134.481400,154.222366 130.816376,154.204514 126.722542,154.224365 
	C126.642006,151.539871 126.990288,148.817703 127.907501,146.279816 
	C131.702103,146.564621 134.927795,146.665100 138.153473,146.765579 
	C138.333176,149.062607 138.512863,151.359634 138.419479,153.948441 
z"/>
<path fill="#C9C9CE" opacity="1.000000" stroke="none" 
	d="
M141.451920,112.041351 
	C138.420715,112.160133 135.678284,112.126381 132.485382,112.122650 
	C132.089966,110.211906 132.145020,108.271149 132.465561,106.013100 
	C137.327347,105.763672 141.923660,105.831535 147.030182,105.938789 
	C145.607147,107.948387 143.673920,109.918594 141.451920,112.041351 
z"/>
<path fill="#C9C9CE" opacity="1.000000" stroke="none" 
	d="
M138.291458,134.974030 
	C138.566437,136.787643 138.841415,138.601242 138.756714,140.829468 
	C138.151199,141.448013 138.001877,141.707550 137.949066,142.022659 
	C137.949066,142.022659 137.988037,142.108398 137.584778,142.167557 
	C134.498611,142.276611 131.815704,142.326523 128.889252,142.246948 
	C128.464005,142.089172 128.282303,142.060852 128.100616,142.032547 
	C128.248688,139.860413 128.396759,137.688293 129.217834,135.295364 
	C132.691040,135.041061 135.491241,135.007553 138.291458,134.974030 
z"/>
<path fill="#C9C9CE" opacity="1.000000" stroke="none" 
	d="
M121.068924,111.736969 
	C117.898506,112.098709 114.885330,112.086411 111.415451,112.123489 
	C110.402893,110.265434 109.847038,108.358002 109.475342,106.094925 
	C113.327972,105.772346 116.996452,105.805412 121.066330,105.780983 
	C121.387199,107.603310 121.306679,109.483124 121.068924,111.736969 
z"/>
<path fill="#C0C0C6" opacity="1.000000" stroke="none" 
	d="
M130.082092,123.225067 
	C132.800095,122.949753 135.355103,123.028419 138.321671,123.022820 
	C138.751266,125.137520 138.769287,127.336479 138.032745,129.791077 
	C134.792297,130.073929 132.306412,130.101166 129.820511,130.128403 
	C129.853363,127.945290 129.886215,125.762169 130.082092,123.225067 
z"/>
<path fill="#B7B7C3" opacity="1.000000" stroke="none" 
	d="
M108.309875,150.908997 
	C106.633125,149.431717 105.172295,147.654541 103.412056,145.700745 
	C103.329742,142.060471 103.546844,138.596832 103.763947,135.133194 
	C104.452065,135.077469 105.140182,135.021744 105.828300,134.966019 
	C106.727463,140.180374 107.626625,145.394745 108.309875,150.908997 
z"/>
<path fill="#B7B7C3" opacity="1.000000" stroke="none" 
	d="
M112.191605,123.815353 
	C115.353760,123.714439 116.168030,125.693619 116.118340,128.511108 
	C116.037804,133.078522 116.125587,137.648895 116.063187,142.696594 
	C114.699806,136.877121 113.415543,130.579086 112.191605,123.815353 
z"/>
<path fill="#020202" opacity="1.000000" stroke="none" 
	d="
M129.132782,142.376434 
	C131.815704,142.326523 134.498611,142.276611 137.631653,142.163269 
	C138.093018,143.396774 138.104233,144.693756 138.134460,146.378143 
	C134.927795,146.665100 131.702103,146.564621 128.269653,146.094177 
	C128.062897,145.724243 128.273529,145.607849 128.478485,145.239441 
	C128.833221,144.039505 128.983002,143.207962 129.132782,142.376434 
z"/>
<path fill="#131317" opacity="1.000000" stroke="none" 
	d="
M129.786087,130.477219 
	C132.306412,130.101166 134.792297,130.073929 137.748932,130.089691 
	C138.224564,131.477798 138.229446,132.822891 138.262909,134.571014 
	C135.491241,135.007553 132.691040,135.041061 129.435120,135.019562 
	C129.236832,133.585052 129.494247,132.205551 129.786087,130.477219 
z"/>
<path fill="#414152" opacity="1.000000" stroke="none" 
	d="
M128.889236,142.246948 
	C128.983002,143.207962 128.833221,144.039505 128.471924,145.119293 
	C128.180222,144.532730 128.100021,143.697906 128.060211,142.447815 
	C128.282303,142.060852 128.464005,142.089172 128.889236,142.246948 
z"/>
<path fill="#C2C2C3" opacity="1.000000" stroke="none" 
	d="
M177.998047,150.389954 
	C177.476410,147.206268 176.954788,144.022583 176.368042,140.441452 
	C171.153717,140.441452 165.604172,140.441452 159.651810,140.441452 
	C159.651810,142.740295 159.651810,145.117340 159.651810,146.372971 
	C161.792160,148.268097 163.351257,149.648575 164.606079,151.592010 
	C160.343689,155.309082 158.342331,154.882919 156.723282,150.262924 
	C155.303268,146.210938 154.177429,142.055893 152.921646,137.946365 
	C152.606781,133.437317 152.291901,128.928284 152.384033,123.953659 
	C154.452682,125.005928 156.603027,126.248154 157.653549,128.110703 
	C158.997559,130.493591 159.455154,133.376434 160.485977,136.651321 
	C162.263229,133.173386 163.617035,130.524109 164.970825,127.874847 
	C167.720779,128.707123 170.436722,129.983780 173.233994,130.197845 
	C174.803986,130.317993 176.508484,128.680832 178.383194,127.268417 
	C179.767746,123.210236 182.049072,122.935120 184.966461,124.474129 
	C184.912994,126.538300 184.859528,128.602463 184.590607,131.312622 
	C182.249451,138.102386 180.123749,144.246170 177.998047,150.389954 
z"/>
<path fill="#C0C0C2" opacity="1.000000" stroke="none" 
	d="
M199.786057,154.273392 
	C199.969681,151.806961 200.167068,149.341446 200.330322,146.873657 
	C200.397324,145.860794 200.504700,144.830719 200.396164,143.829895 
	C200.076385,140.881592 199.657806,137.944031 199.957245,134.846603 
	C202.936707,135.283005 205.236816,135.875046 208.072891,136.605057 
	C206.793289,131.519485 204.121841,129.648422 199.751175,130.141846 
	C199.524628,128.097610 199.298080,126.053391 199.578690,123.635864 
	C204.039154,124.306290 207.992432,125.350021 211.945740,126.393753 
	C211.707703,129.441406 211.414627,132.486237 211.258682,135.538055 
	C211.195984,136.764969 211.468719,138.005600 211.529129,139.242889 
	C211.714828,143.046509 211.871704,146.851562 211.627594,151.161407 
	C207.405640,152.535629 203.595840,153.404510 199.786057,154.273392 
z"/>
<path fill="#0A0A0B" opacity="1.000000" stroke="none" 
	d="
M178.036591,150.825012 
	C180.123749,144.246170 182.249451,138.102386 184.680786,131.688934 
	C185.398163,142.268845 185.809921,153.118408 185.808624,164.421295 
	C182.963669,164.864639 180.531738,164.854630 178.099823,164.844635 
	C178.091599,160.316437 178.083359,155.788254 178.036591,150.825012 
z"/>
<path fill="#0A0A0B" opacity="1.000000" stroke="none" 
	d="
M199.780884,154.700287 
	C203.595840,153.404510 207.405640,152.535629 211.595001,151.538025 
	C211.607803,155.713837 211.241058,160.018372 210.212082,164.599045 
	C206.591904,164.867294 203.633957,164.859406 200.675995,164.851532 
	C200.375916,161.610092 200.075821,158.368637 199.780884,154.700287 
z"/>
<path fill="#C4C4C7" opacity="1.000000" stroke="none" 
	d="
M169.391815,106.236099 
	C177.209045,105.920448 185.135574,105.898705 193.529617,105.903717 
	C192.243057,107.921204 190.488968,109.911934 187.958557,111.994415 
	C183.421463,112.121048 179.660675,112.155930 175.899902,112.190811 
	C173.766983,110.303879 171.634048,108.416939 169.391815,106.236099 
z"/>
<path fill="#07070B" opacity="1.000000" stroke="none" 
	d="
M175.984146,112.573410 
	C179.660675,112.155930 183.421463,112.121048 187.656479,112.136116 
	C187.210648,116.039803 186.290573,119.893539 185.168488,124.110703 
	C182.049072,122.935120 179.767746,123.210236 178.350677,126.904251 
	C177.414352,122.390068 176.741364,117.673042 175.984146,112.573410 
z"/>
<path fill="#04040A" opacity="1.000000" stroke="none" 
	d="
M212.023148,125.934341 
	C207.992432,125.350021 204.039154,124.306290 199.700912,123.246300 
	C199.512589,121.763779 199.222122,119.912025 200.011383,118.914795 
	C201.470673,117.070992 203.611313,114.439552 205.378052,114.506691 
	C207.516617,114.587967 210.189331,116.730278 211.455460,118.726303 
	C212.534683,120.427666 211.949478,123.184837 212.023148,125.934341 
z"/>
<path fill="#C4C4C6" opacity="1.000000" stroke="none" 
	d="
M178.007721,165.298813 
	C180.531738,164.854630 182.963669,164.864639 185.875168,164.847931 
	C187.628204,167.004028 188.901672,169.186829 190.290833,171.722046 
	C186.605423,172.097336 182.804321,172.120224 178.549362,172.163513 
	C178.035553,170.040283 177.975601,167.896637 178.007721,165.298813 
z"/>
<path fill="#0D0D0F" opacity="1.000000" stroke="none" 
	d="
M199.747803,130.494308 
	C204.121841,129.648422 206.793289,131.519485 208.072891,136.605057 
	C205.236816,135.875046 202.936707,135.283005 200.239609,134.499756 
	C199.809891,133.154633 199.777161,132.000702 199.747803,130.494308 
z"/>
<path fill="#B7B7C3" opacity="1.000000" stroke="none" 
	d="
M200.798904,165.233109 
	C203.633957,164.859406 206.591904,164.867294 210.047195,164.930573 
	C207.909973,169.015869 204.847794,169.215942 200.798904,165.233109 
z"/>
<path fill="#0D0D0F" opacity="1.000000" stroke="none" 
	d="
M152.585373,138.213806 
	C154.177429,142.055893 155.303268,146.210938 156.723282,150.262924 
	C158.342331,154.882919 160.343689,155.309082 164.642090,151.979523 
	C164.848221,155.752090 165.489258,159.979919 164.212921,163.515594 
	C163.673767,165.009171 159.096100,165.527756 156.357010,165.519562 
	C155.171066,165.516006 153.059677,163.121750 152.965714,161.707336 
	C152.452576,153.983536 152.436249,146.226700 152.585373,138.213806 
z"/>
<path fill="#04040A" opacity="1.000000" stroke="none" 
	d="
M164.986710,127.432823 
	C163.617035,130.524109 162.263229,133.173386 160.485977,136.651321 
	C159.455154,133.376434 158.997559,130.493591 157.653549,128.110703 
	C156.603027,126.248154 154.452682,125.005928 152.443665,123.528496 
	C152.403824,121.802307 152.157715,119.579216 153.149292,118.376564 
	C154.619690,116.593132 157.004059,114.415184 158.930923,114.478783 
	C160.860992,114.542488 163.544098,116.793182 164.376877,118.736717 
	C165.405304,121.136780 164.865036,124.209007 164.986710,127.432823 
z"/>
<path fill="#414152" opacity="1.000000" stroke="none" 
	d="
M138.150620,141.948853 
	C138.001877,141.707550 138.151199,141.448013 138.620972,141.218628 
	C138.764206,141.480850 138.599945,141.708115 138.150620,141.948853 
z"/>
</svg>